<svg width="102" height="37" viewBox="0 0 102 37" fill="none" xmlns="http://www.w3.org/2000/svg">
<path d="M0.1 36V0.999998H18.05C22.3167 0.999998 25.5 2.05 27.6 4.15C29.1 5.65 29.85 7.56667 29.85 9.9C29.85 13.5333 28.05 16.1333 24.45 17.7C26.7167 18.4333 28.4333 19.4833 29.6 20.85C30.8 22.2167 31.4 24.05 31.4 26.35C31.4 29.35 30.2333 31.7167 27.9 33.45C25.5667 35.15 22.3167 36 18.15 36H0.1ZM9.55 28.2H17.05C20.15 28.2 21.7 27.1 21.7 24.9C21.7 22.8 20.1167 21.75 16.95 21.75H9.55V28.2ZM9.55 14.95H15.65C18.7167 14.95 20.25 13.9 20.25 11.8C20.25 9.8 18.7833 8.8 15.85 8.8H9.55V14.95ZM35.8422 36V0.999998H45.5422V14.1H57.9922V0.999998H67.6922V36H57.9922V22.7H45.5422V36H35.8422ZM87.6293 36.6C81.0293 36.6 75.5626 34.6667 71.2293 30.8L76.6293 24.35C80.1293 27.15 83.9126 28.55 87.9793 28.55C90.646 28.55 91.9793 27.7167 91.9793 26.05C91.9793 25.3167 91.5793 24.7167 90.7793 24.25C89.9793 23.75 88.4126 23.2333 86.0793 22.7C83.946 22.2 82.1793 21.7167 80.7793 21.25C79.4126 20.75 78.0626 20.1 76.7293 19.3C75.4293 18.4667 74.4626 17.4167 73.8293 16.15C73.196 14.8833 72.8793 13.3667 72.8793 11.6C72.8793 8.3 74.096 5.61667 76.5293 3.55C78.996 1.45 82.296 0.399999 86.4293 0.399999C92.1626 0.399999 96.9626 1.95 100.829 5.05L95.9793 11.9C92.7126 9.6 89.446 8.45 86.1793 8.45C85.046 8.45 84.1793 8.66667 83.5793 9.1C82.9793 9.53333 82.6793 10.1 82.6793 10.8C82.6793 11.6 83.0793 12.2333 83.8793 12.7C84.7126 13.1667 86.3293 13.6667 88.7293 14.2C93.1293 15.1667 96.396 16.4667 98.5293 18.1C100.696 19.7 101.779 22.0667 101.779 25.2C101.779 28.7333 100.496 31.5167 97.9293 33.55C95.3626 35.5833 91.9293 36.6 87.6293 36.6Z" fill="#95A3B0"/>
</svg>
