<svg width="149" height="55" viewBox="0 0 149 55" fill="none" xmlns="http://www.w3.org/2000/svg">
<path d="M69.6195 32.9967H60.1422L65.0209 21.8555L69.6195 32.9967ZM73.3445 41.0038L77.6464 51.2917H84.2558L85.9864 48.4367L65.0209 4.15118L43.2148 51.2917H52.1153L56.4172 41.0038H73.3445Z" fill="#95A3B0"/>
<path d="M30.014 4.15118L8.19141 51.2917H17.0918L21.3937 41.0038H38.3211L42.6229 51.2917H49.2323L51.8201 49.8642L30.014 4.15118ZM25.1352 32.9967L30.014 21.8555L34.6125 32.9967H25.1352Z" fill="#95A3B0"/>
<path d="M89.138 3.5769L105.208 37.0002L120.421 3.5769L132.19 51.2917H123.586L118.13 27.8609L105.208 53.5724L91.7258 27.0077L86.847 51.2917H78.5234L89.138 3.5769Z" fill="#95A3B0"/>
<path d="M140.808 4.43018H132.188V51.2917H140.808V4.43018Z" fill="#95A3B0"/>
</svg>
