<svg width="123" height="51" viewBox="0 0 123 51" fill="none" xmlns="http://www.w3.org/2000/svg">
<path d="M6.33243 50.3903H0.757812V0.687592H49.7675C71.2652 0.687592 74.6576 20.1164 74.6576 20.1164L86.7211 0.687592H99.3623L122.47 38.372L115.231 50.3887H84.7621V44.3936H118.842L93.0279 0.687073C93.0279 0.687073 76.0155 30.4682 72.3633 36.2698C68.7109 42.0716 61.8503 50.3874 50.0991 50.3874H31.8991V20.7983H37.6661V44.392H50.9299C56.7956 44.392 69.384 39.3639 69.384 25.1497C69.384 10.9356 55.9278 6.48762 51.5065 6.48762H6.33191V50.3861L6.33243 50.3903ZM8.25472 50.3903V29.3107H29.7844V35.1126H14.0215V50.3905H8.25446L8.25472 50.3903ZM29.7844 26.7965V20.8014H14.0215V14.4425H50.2932C55.7304 14.4425 61.5033 18.8674 61.5033 25.3459C61.5033 31.8244 55.6682 36.2724 51.5074 36.2724H45.8531V20.8011H39.894V42.0742H51.5074C58.8629 42.0742 67.3663 35.6515 67.3663 25.5392C67.3663 15.5237 59.6327 8.61755 50.3848 8.61755H8.25601V26.7963H29.7857L29.7844 26.7965ZM66.5951 50.3903L93.0278 6.49177L114.75 42.0745H84.7632V36.2726H104.178L93.0291 17.9971L74.6712 50.3911H66.5975L66.5951 50.3903Z" fill="#95A3B0"/>
</svg>
