<svg width="98" height="37" viewBox="0 0 98 37" fill="none" xmlns="http://www.w3.org/2000/svg">
<path d="M0.1 36V0.999998H28.25V9.25H9.7V14.55H26.5V22.2H9.7V27.75H28.5V36H0.1ZM47.1996 36.6C40.5996 36.6 35.1329 34.6667 30.7996 30.8L36.1996 24.35C39.6996 27.15 43.4829 28.55 47.5496 28.55C50.2163 28.55 51.5496 27.7167 51.5496 26.05C51.5496 25.3167 51.1496 24.7167 50.3496 24.25C49.5496 23.75 47.9829 23.2333 45.6496 22.7C43.5163 22.2 41.7496 21.7167 40.3496 21.25C38.9829 20.75 37.6329 20.1 36.2996 19.3C34.9996 18.4667 34.0329 17.4167 33.3996 16.15C32.7663 14.8833 32.4496 13.3667 32.4496 11.6C32.4496 8.3 33.6663 5.61667 36.0996 3.55C38.5663 1.45 41.8663 0.399999 45.9996 0.399999C51.7329 0.399999 56.5329 1.95 60.3996 5.05L55.5496 11.9C52.2829 9.6 49.0163 8.45 45.7496 8.45C44.6163 8.45 43.7496 8.66667 43.1496 9.1C42.5496 9.53333 42.2496 10.1 42.2496 10.8C42.2496 11.6 42.6496 12.2333 43.4496 12.7C44.2829 13.1667 45.8996 13.6667 48.2996 14.2C52.6996 15.1667 55.9663 16.4667 58.0996 18.1C60.2663 19.7 61.3496 22.0667 61.3496 25.2C61.3496 28.7333 60.0663 31.5167 57.4996 33.55C54.9329 35.5833 51.4996 36.6 47.1996 36.6ZM66.0668 36V0.999998H75.7668V14.1H88.2168V0.999998H97.9168V36H88.2168V22.7H75.7668V36H66.0668Z" fill="#95A3B0"/>
</svg>
