<svg width="68" height="48" viewBox="0 0 68 48" fill="none" xmlns="http://www.w3.org/2000/svg">
<g clip-path="url(#clip0)">
<path fill-rule="evenodd" clip-rule="evenodd" d="M26.7143 47.8797C25.9073 47.9599 25.0968 48 24.2857 48C17.8447 48 11.6676 45.4714 7.11312 40.9706C2.55867 36.4697 0 30.3652 0 24C0 17.6348 2.55867 11.5303 7.11312 7.02944C11.6676 2.52856 17.8447 0 24.2857 0C25.0968 -2.30744e-08 25.9073 0.0401508 26.7143 0.120301V7.3203C25.9087 7.22296 25.0971 7.18276 24.2857 7.2C19.777 7.2 15.453 8.96999 12.2649 12.1206C9.07678 15.2712 7.28571 19.5444 7.28571 24C7.28571 28.4556 9.07678 32.7288 12.2649 35.8794C15.453 39.03 19.777 40.8 24.2857 40.8C25.0971 40.8172 25.9087 40.777 26.7143 40.6797V47.8797Z" fill="#95A3B0"/>
<path fill-rule="evenodd" clip-rule="evenodd" d="M67.9994 47.8797C67.1925 47.9599 66.3819 48 65.5709 48C59.1299 48 52.9527 45.4714 48.3983 40.9706C43.8438 36.4697 41.2852 30.3652 41.2852 24C41.2852 17.6348 43.8438 11.5303 48.3983 7.02944C52.9527 2.52856 59.1299 0 65.5709 0C66.3819 -2.30744e-08 67.1925 0.0401508 67.9994 0.120301V7.3203C67.1939 7.22296 66.3823 7.18276 65.5709 7.2C61.6948 7.19969 57.935 8.50836 54.9147 10.9091C51.8944 13.3099 49.795 16.6585 48.9644 20.4H63.1423V27.6H48.9644C49.795 31.3415 51.8944 34.6901 54.9147 37.0909C57.935 39.4916 61.6948 40.8003 65.5709 40.8C66.3823 40.8172 67.1939 40.777 67.9994 40.6797V47.8797Z" fill="#95A3B0"/>
</g>
<defs>
<clipPath id="clip0">
<rect width="68" height="48" fill="white"/>
</clipPath>
</defs>
</svg>
