<svg width="185" height="51" viewBox="0 0 185 51" fill="none" xmlns="http://www.w3.org/2000/svg">
<g clip-path="url(#clip0)">
<path d="M132.904 21.6012H129.314V42.0434H132.904V21.6012Z" fill="white"/>
<path d="M116.807 36.3533C116.372 37.407 115.719 38.1446 115.067 38.5661L109.52 21.6012H105.822L112.565 42.2541H113.979C116.589 42.2541 118.982 40.5681 120.178 37.6177C120.614 36.564 126.595 21.6012 126.595 21.6012H122.789C122.68 21.6012 117.786 34.1404 116.807 36.3533Z" fill="white"/>
<path d="M25.3398 21.3905C22.512 21.3905 20.2281 22.2335 18.4879 23.8141C16.639 25.6054 15.6602 28.3451 15.6602 31.8223C15.6602 35.405 16.639 38.0393 18.4879 39.8306C20.1193 41.4112 22.512 42.2541 25.3398 42.2541C28.1675 42.2541 30.5602 41.4112 32.1916 39.8306C34.0405 38.0393 35.0194 35.2996 35.0194 31.8223C35.0194 28.2397 34.0405 25.6054 32.1916 23.8141C30.5602 22.2335 28.2763 21.3905 25.3398 21.3905ZM29.6901 37.407C28.7113 38.3554 27.1887 38.8822 25.3398 38.8822C23.4908 38.8822 21.9682 38.3554 20.9894 37.407C19.793 36.2479 19.2492 34.4566 19.2492 31.8223C19.2492 29.2934 19.793 27.3967 20.9894 26.2376C21.9682 25.2893 23.4908 24.7624 25.3398 24.7624C27.1887 24.7624 28.7113 25.2893 29.6901 26.2376C30.8865 27.3967 31.4303 29.188 31.4303 31.8223C31.539 34.3513 30.8865 36.2479 29.6901 37.407Z" fill="white"/>
<path d="M142.257 16.1219H138.668V21.6013H136.275V25.0786H138.668V37.3017C138.668 40.1467 140.952 42.3596 143.889 42.3596H146.499V38.9876H143.889C142.91 38.9876 142.148 38.25 142.148 37.3017V25.0786H146.499V21.6013H142.148V16.1219H142.257Z" fill="white"/>
<path d="M77.11 23.6033C77.11 23.6033 76.5662 23.1818 76.4574 23.1818C76.2399 22.9711 76.0224 22.8657 75.6961 22.7603C75.1523 22.4442 74.7173 22.2335 74.1735 22.0227C71.7807 21.1797 69.1705 21.1797 66.8866 22.1281C65.9077 22.5496 64.9289 23.0764 64.1676 23.814C62.3187 25.6054 61.3398 28.345 61.3398 31.8223C61.3398 33.6136 61.5574 35.2996 62.1012 36.6694C62.5362 37.9339 63.2975 38.9876 64.1676 39.8306C65.799 41.4111 68.1917 42.2541 71.0194 42.2541C73.6297 42.2541 75.6961 41.8326 77.11 41.5165C77.0012 43.624 76.4574 45.2045 75.3698 46.1529C74.391 47.1012 72.8684 47.5227 71.0194 47.5227C68.518 47.5227 66.7778 47.2066 65.6902 46.7851C65.2552 46.6797 63.08 45.7314 63.08 45.7314L61.3398 48.5764L62.2099 49.1033C62.2099 49.1033 65.2552 50.8946 70.9107 50.8946C73.7384 50.8946 76.1311 50.0516 77.7625 48.4711C79.7202 46.6797 80.5903 43.9401 80.5903 40.4628V21.4959H77.0012V23.6033H77.11ZM77.11 37.8285C76.0224 38.25 73.9559 38.8822 71.0194 38.8822C69.1705 38.8822 67.6479 38.3554 66.6691 37.407C65.4727 36.2479 64.9289 34.4566 64.9289 31.8223C64.9289 29.2934 65.5815 27.3967 66.6691 26.2376C67.6479 25.2892 69.1705 24.7624 71.0194 24.7624C72.8684 24.7624 74.391 25.2892 75.3698 26.2376C76.5662 27.3967 77.11 29.188 77.11 31.7169V37.8285Z" fill="white"/>
<path d="M53.7263 22.7603C53.0738 22.3389 52.4212 22.1281 51.7687 21.9174C50.5723 21.4959 49.2672 21.3905 48.0708 21.3905C46.8745 21.3905 45.6781 21.7066 44.5905 22.1281C43.7205 22.4442 42.8504 22.9711 42.0891 23.6033V21.6012H38.5V42.0434H42.0891V31.8223C42.0891 29.2934 42.7416 27.3967 43.938 26.343C44.9168 25.3946 46.4394 24.8678 48.2884 24.8678C50.1373 24.8678 51.6599 25.2893 52.6387 26.2376C53.8351 27.3967 54.4876 29.2934 54.4876 31.8223V42.0434H57.9679V31.8223C57.9679 28.2397 57.0979 25.6054 55.1402 23.8141C54.5964 23.3926 54.1614 23.0765 53.7263 22.7603Z" fill="white"/>
<path d="M179.561 3.68802C179.996 5.90083 181.084 11.907 174.45 16.438C175.102 11.2748 168.903 8.00827 161.725 3.58264C160.093 2.73967 158.788 1.58058 157.918 0C157.918 0 157.483 0.52686 157.374 0.632231C157.157 0.842975 157.048 1.05372 156.939 1.26446C156.613 1.68595 156.395 2.21281 156.178 2.73967C155.743 3.79339 155.525 4.95248 155.525 6.11157C155.525 7.37603 155.96 8.53512 156.613 9.58884C157.483 10.9587 158.788 12.0124 160.093 12.8554C162.16 14.1198 164.335 14.8574 166.619 15.4897C167.815 15.8058 168.903 16.1219 169.99 16.7541C170.969 17.281 171.731 18.0186 172.492 18.8616C172.818 19.2831 173.144 19.7045 173.362 20.126C174.885 18.7562 176.951 17.5971 180.323 16.3326C188.262 13.2769 184.782 5.37397 179.561 3.68802Z" fill="white"/>
<path d="M166.619 23.8141C164.879 22.2335 162.595 21.3905 159.767 21.3905C156.07 21.3905 153.024 22.3389 151.502 22.8657L152.916 26.0269C154.438 25.5 156.94 24.8678 159.767 24.8678C161.616 24.8678 163.139 25.3946 164.118 26.343C164.77 26.9752 165.205 27.8182 165.532 28.9773C164.118 28.7665 162.16 28.5558 159.767 28.5558C158.027 28.5558 156.287 28.7665 154.656 29.2934C154.221 29.5041 153.677 29.7149 153.242 29.9256C151.067 31.1901 149.87 33.5083 150.088 35.9318C150.197 37.7231 150.849 39.4091 152.372 40.5682C153.677 41.5165 155.308 42.0434 156.94 42.1488C158.897 42.3595 160.855 42.3595 162.704 41.7273C163.683 41.4112 164.662 40.9897 165.532 40.3574C165.64 40.2521 165.858 40.1467 165.967 40.0413V42.0434H169.556V31.8223C169.556 31.1901 169.556 30.6632 169.447 30.031C169.012 27.3967 168.142 25.2893 166.619 23.8141ZM165.858 36.1426C165.858 36.8802 165.423 37.6178 164.662 37.8285C163.03 38.5661 161.508 38.8822 159.332 38.8822C157.592 38.8822 156.07 38.5661 154.982 37.9339C154.112 37.3017 153.568 36.4587 153.568 35.2996C153.568 34.1405 154.112 33.2975 154.982 32.7707C156.07 32.1384 157.483 31.8223 158.897 31.8223C161.616 31.8223 163.139 31.9277 165.858 32.2438V36.1426Z" fill="white"/>
<path d="M93.7499 21.3905C90.9222 21.3905 88.5295 22.2335 86.8981 23.8141C85.0491 25.6054 84.0703 28.3451 84.0703 31.8223C84.0703 35.2996 85.0491 38.0393 86.8981 39.8306C87.7681 40.6736 88.8557 41.2004 89.9433 41.6219C91.1397 42.0434 92.5536 42.1488 93.8587 42.2541C95.2726 42.2541 96.6864 42.1488 98.1003 41.938C99.4054 41.7273 100.711 41.4112 101.907 40.8843C102.233 40.7789 102.559 40.5682 102.886 40.3575L101.907 37.407H101.798C99.2967 38.3554 96.4689 38.6715 93.7499 38.6715C93.4236 38.6715 93.0974 38.6715 92.8798 38.6715C91.7922 38.5661 90.7046 38.25 89.8346 37.6178C88.747 36.8802 88.3119 35.7211 87.8769 34.562C87.7681 34.2459 87.6594 33.8244 87.6594 33.2975H103.43V31.717C103.43 28.1343 102.451 25.5 100.602 23.7087C98.9704 22.2335 96.6864 21.3905 93.7499 21.3905ZM87.9857 29.0827C88.0944 28.7665 88.2032 28.4504 88.3119 28.1343C88.4207 27.8182 88.6382 27.3967 88.8557 27.0806C89.0733 26.7645 89.2908 26.4484 89.5083 26.2376C90.4871 25.2893 92.0098 24.7624 93.8587 24.7624C95.7076 24.7624 97.2302 25.2893 98.2091 26.2376C99.0791 27.0806 99.6229 28.3451 99.8405 30.031H87.7681C87.7681 29.7149 87.8769 29.3988 87.9857 29.0827Z" fill="white"/>
<path d="M8.80952 37.3017V3.8988H0V7.2707H5.32922V37.3017C5.32922 40.0414 7.72193 42.3595 10.5497 42.3595H13.1599V38.9876H10.5497C9.6796 38.9876 8.80952 38.25 8.80952 37.3017Z" fill="white"/>
</g>
<defs>
<clipPath id="clip0">
<rect width="185" height="51" fill="white"/>
</clipPath>
</defs>
</svg>
